<svg xmlns="http://www.w3.org/2000/svg" viewBox="0 0 64 64" role="img" aria-label="Lily icon">
  <defs>
    <filter id="shadow" x="-30%" y="-30%" width="160%" height="170%" color-interpolation-filters="sRGB">
      <feDropShadow dx="0" dy="5" stdDeviation="4" flood-color="#2b241d" flood-opacity="0.20"/>
    </filter>
  </defs>
  <g filter="url(#shadow)">
    <path d="M34 34c9 4 14 11 15 21" fill="none" stroke="#2f5941" stroke-width="6" stroke-linecap="round"/>
    <path d="M32 31c-10-1-18-8-19-19 10 1 18 8 19 19z" fill="#e4b4ae"/>
    <path d="M33 30c1-11 8-20 17-24 2 11-4 21-17 24z" fill="#c9858e"/>
    <path d="M34 35c11-8 20-9 25-2-8 7-17 8-25 2z" fill="#668d68"/>
    <path d="M30 39c-8 5-15 5-21 0 6-6 14-7 21 0z" fill="#fffaf2"/>
    <circle cx="31" cy="34" r="7" fill="#c49a45"/>
  </g>
</svg>