<svg xmlns="http://www.w3.org/2000/svg" viewBox="0 0 128 128" role="img" aria-label="Lily icon"><defs><filter id="depth" x="-40%" y="-40%" width="180%" height="180%"><feDropShadow dx="0" dy="8" stdDeviation="5" flood-color="#2b2118" flood-opacity=".22"/></filter><linearGradient id="soft" x1="18" x2="110" y1="18" y2="112" gradientUnits="userSpaceOnUse"><stop stop-color="#fffaf2"/><stop offset="1" stop-color="#e5d8ca"/></linearGradient><linearGradient id="warm" x1="20" x2="108" y1="20" y2="108" gradientUnits="userSpaceOnUse"><stop stop-color="#ddaaa2"/><stop offset="1" stop-color="#ad715e"/></linearGradient><linearGradient id="cool" x1="20" x2="108" y1="20" y2="108" gradientUnits="userSpaceOnUse"><stop stop-color="#7fa9a2"/><stop offset="1" stop-color="#456f77"/></linearGradient></defs><g filter="url(#depth)"><path d="M64 20c15 18 14 33 0 46-14-13-15-28 0-46z" fill="#bd7f89"/><path d="M36 37c22 4 33 15 28 34-19 3-31-9-28-34z" fill="#d7a2a1"/><path d="M92 37c-22 4-33 15-28 34 19 3 31-9 28-34z" fill="#5f835f"/><path d="M41 84c18-14 32-13 46 0-14 14-29 14-46 0z" fill="#fff7ea"/><circle cx="64" cy="70" r="10" fill="#a7833c"/><path d="M65 79c5 14 16 23 31 26" fill="none" stroke="#415e45" stroke-width="7" stroke-linecap="round"/></g></svg>