<svg xmlns="http://www.w3.org/2000/svg" viewBox="0 0 128 128" role="img" aria-label="Lily icon"><defs><filter id="depth" x="-45%" y="-45%" width="190%" height="190%"><feDropShadow dx="0" dy="8" stdDeviation="5" flood-color="#221a16" flood-opacity=".24"/><feDropShadow dx="0" dy="1" stdDeviation="1" flood-color="#fff8ef" flood-opacity=".34"/></filter><linearGradient id="paper" x1="20" y1="14" x2="108" y2="116" gradientUnits="userSpaceOnUse"><stop stop-color="#fff8ee"/><stop offset="1" stop-color="#dfd1bf"/></linearGradient><linearGradient id="ink" x1="18" y1="14" x2="108" y2="116" gradientUnits="userSpaceOnUse"><stop stop-color="#31313b"/><stop offset="1" stop-color="#080911"/></linearGradient><linearGradient id="coral" x1="18" y1="16" x2="110" y2="114" gradientUnits="userSpaceOnUse"><stop stop-color="#eda891"/><stop offset=".55" stop-color="#ce735b"/><stop offset="1" stop-color="#884a3c"/></linearGradient><linearGradient id="rose" x1="18" y1="16" x2="108" y2="116" gradientUnits="userSpaceOnUse"><stop stop-color="#e4a4ad"/><stop offset=".55" stop-color="#ba6c84"/><stop offset="1" stop-color="#6f425b"/></linearGradient><linearGradient id="teal" x1="16" y1="16" x2="108" y2="112" gradientUnits="userSpaceOnUse"><stop stop-color="#83aaa0"/><stop offset=".55" stop-color="#4f827a"/><stop offset="1" stop-color="#244d52"/></linearGradient><linearGradient id="blue" x1="18" y1="16" x2="108" y2="112" gradientUnits="userSpaceOnUse"><stop stop-color="#7891b7"/><stop offset=".56" stop-color="#496c9a"/><stop offset="1" stop-color="#1e2d55"/></linearGradient><linearGradient id="gold" x1="20" y1="16" x2="108" y2="112" gradientUnits="userSpaceOnUse"><stop stop-color="#f0c763"/><stop offset=".55" stop-color="#be8434"/><stop offset="1" stop-color="#6e421e"/></linearGradient></defs><g filter="url(#depth)"> <path d="M64 18c16 19 15 35 0 50-15-15-16-31 0-50z" fill="url(#rose)"/> <path d="M35 36c24 4 36 17 30 37-20 4-34-10-30-37z" fill="#dfa8a7"/> <path d="M93 36c-24 4-36 17-30 37 20 4 34-10 30-37z" fill="#608d67"/> <path d="M39 86c20-15 34-15 50 0-16 15-31 15-50 0z" fill="#fff8ee"/> <circle cx="64" cy="71" r="10" fill="url(#gold)"/> <path d="M65 80c5 14 16 24 32 27" fill="none" stroke="#3f6948" stroke-width="8" stroke-linecap="round"/> </g></svg>