<svg xmlns="http://www.w3.org/2000/svg" viewBox="0 0 128 128" role="img" aria-label="Lily icon"><defs><filter id="d" x="-35%" y="-35%" width="170%" height="170%"><feDropShadow dx="0" dy="10" stdDeviation="6" flood-color="#2b211d" flood-opacity=".18"/><feDropShadow dx="0" dy="1" stdDeviation="1" flood-color="#fffaf4" flood-opacity=".48"/></filter><linearGradient id="cream" x1="18" y1="18" x2="108" y2="114"><stop stop-color="#fff8ef"/><stop offset="1" stop-color="#e4d7c6"/></linearGradient><linearGradient id="rose" x1="18" y1="18" x2="108" y2="114"><stop stop-color="#e4a8b2"/><stop offset=".55" stop-color="#be748a"/><stop offset="1" stop-color="#70465e"/></linearGradient><linearGradient id="green" x1="18" y1="20" x2="108" y2="112"><stop stop-color="#87a982"/><stop offset=".56" stop-color="#5f8b65"/><stop offset="1" stop-color="#3f6a49"/></linearGradient><linearGradient id="gold" x1="20" y1="16" x2="108" y2="112"><stop stop-color="#efc868"/><stop offset=".58" stop-color="#bd8337"/><stop offset="1" stop-color="#6d4522"/></linearGradient></defs><g filter="url(#d)"><ellipse cx="64" cy="46" rx="16" ry="24" fill="url(#rose)"/><ellipse cx="49" cy="62" rx="15" ry="24" transform="rotate(-34 49 62)" fill="#e0aaa8"/><ellipse cx="80" cy="62" rx="15" ry="24" transform="rotate(34 80 62)" fill="url(#green)"/><ellipse cx="64" cy="82" rx="24" ry="12" fill="url(#cream)"/><circle cx="64" cy="69" r="10" fill="url(#gold)"/><path d="M67 78c4 12 13 20 25 24" fill="none" stroke="#3f6948" stroke-width="8" stroke-linecap="round"/><ellipse cx="82" cy="88" rx="11" ry="6" transform="rotate(32 82 88)" fill="#5f8b65" opacity=".88"/></g></svg>
